<svg width="20" height="20" viewBox="0 0 20 20" fill="none" xmlns="http://www.w3.org/2000/svg">
<path d="M13.8 10C13.8 12 12.2 13.6 10.2 13.6C8.19999 13.6 6.49999 12 6.49999 10C6.49999 9.70005 6.49999 9.50005 6.59999 9.20005H2.29999V15C2.29999 16.5 3.49999 17.7 4.99999 17.7H15C16.5 17.7 17.7 16.5 17.7 15V9.20005H13.7C13.7 9.50005 13.8 9.70005 13.8 10ZM15 2.30005H4.99999C3.49999 2.30005 2.29999 3.50005 2.29999 5.00005V7.90005H7.19999C7.89999 7.00005 8.89999 6.40005 10.1 6.40005C11.3 6.40005 12.3 7.00005 13 7.90005H17.7V5.00005C17.7 3.50005 16.5 2.30005 15 2.30005ZM16 5.40005C16 5.80005 15.7 6.10005 15.3 6.10005H14.4C14 6.10005 13.7 5.80005 13.7 5.40005V4.50005C13.7 4.10005 14 3.80005 14.4 3.80005H15.3C15.7 3.80005 16 4.10005 16 4.50005V5.40005Z" fill="black"/>
</svg>
