<svg width="7" height="10" viewBox="0 0 7 10" fill="none" xmlns="http://www.w3.org/2000/svg">
<path d="M2.04102 1.87891V9.4375H0.951172V0.660156H1.94727L2.04102 1.87891ZM6.3125 3.77734V3.90039C6.3125 4.36133 6.25781 4.78906 6.14844 5.18359C6.03906 5.57422 5.87891 5.91406 5.66797 6.20312C5.46094 6.49219 5.20508 6.7168 4.90039 6.87695C4.5957 7.03711 4.24609 7.11719 3.85156 7.11719C3.44922 7.11719 3.09375 7.05078 2.78516 6.91797C2.47656 6.78516 2.21484 6.5918 2 6.33789C1.78516 6.08398 1.61328 5.7793 1.48438 5.42383C1.35938 5.06836 1.27344 4.66797 1.22656 4.22266V3.56641C1.27344 3.09766 1.36133 2.67773 1.49023 2.30664C1.61914 1.93555 1.78906 1.61914 2 1.35742C2.21484 1.0918 2.47461 0.890625 2.7793 0.753906C3.08398 0.613281 3.43555 0.542969 3.83398 0.542969C4.23242 0.542969 4.58594 0.621094 4.89453 0.777344C5.20312 0.929688 5.46289 1.14844 5.67383 1.43359C5.88477 1.71875 6.04297 2.06055 6.14844 2.45898C6.25781 2.85352 6.3125 3.29297 6.3125 3.77734ZM5.22266 3.90039V3.77734C5.22266 3.46094 5.18945 3.16406 5.12305 2.88672C5.05664 2.60547 4.95312 2.35938 4.8125 2.14844C4.67578 1.93359 4.5 1.76562 4.28516 1.64453C4.07031 1.51953 3.81445 1.45703 3.51758 1.45703C3.24414 1.45703 3.00586 1.50391 2.80273 1.59766C2.60352 1.69141 2.43359 1.81836 2.29297 1.97852C2.15234 2.13477 2.03711 2.31445 1.94727 2.51758C1.86133 2.7168 1.79688 2.92383 1.75391 3.13867V4.65625C1.83203 4.92969 1.94141 5.1875 2.08203 5.42969C2.22266 5.66797 2.41016 5.86133 2.64453 6.00977C2.87891 6.1543 3.17383 6.22656 3.5293 6.22656C3.82227 6.22656 4.07422 6.16602 4.28516 6.04492C4.5 5.91992 4.67578 5.75 4.8125 5.53516C4.95312 5.32031 5.05664 5.07422 5.12305 4.79688C5.18945 4.51562 5.22266 4.2168 5.22266 3.90039Z" fill="#445EFF"/>
</svg>
